<svg xmlns="http://www.w3.org/2000/svg" xmlns:xlink="http://www.w3.org/1999/xlink" version="1.1" width="84.6761" height="169.66694" viewBox="0,0,84.6761,169.66694"><g><g data-paper-data="{&quot;isPaintingLayer&quot;:true}" fill-rule="nonzero" stroke-linejoin="miter" stroke-miterlimit="10" stroke-dasharray="" stroke-dashoffset="0" style="mix-blend-mode: normal"><path d="M244.81426,199.74209c-1.19135,0.50162 -2.76078,-0.5152 -2.76078,-0.5152l-0.7,-46.1l-0.72222,-6.27778c0,0 4.30602,-0.58677 4.74393,2.29558c0.97704,6.43087 2.27759,18.19918 2.18707,24.68647c-0.11739,8.41316 -0.70878,24.29573 -0.70878,24.29573c0,0 -0.85562,1.11684 -2.03922,1.6152z" data-paper-data="{&quot;index&quot;:null}" fill="#c67116" stroke="none" stroke-width="0" stroke-linecap="butt" transform="matrix(1,0,0,1,-211.37949,-76.45518)"/><path d="M240.06141,145.99728l-1.45461,-0.74525l3.54031,-1.62537l5.03491,6.65473l-1.24135,4.26425l-0.44988,-0.24697c0,0 -0.33462,-4.14106 -0.69703,-4.70881c-0.98306,-1.54005 -4.73235,-3.59257 -4.73235,-3.59257z" data-paper-data="{&quot;index&quot;:null}" fill="#db7d18" stroke="none" stroke-width="0" stroke-linecap="butt" transform="matrix(1,0,0,1,-211.37949,-76.45518)"/><path d="M 29.9779 61.4511 L 29.9779 128.7482 L 17.9303 167.6669 " data-paper-data="{&quot;origPos&quot;:null}" fill="none" stroke="#000000" stroke-width="4" stroke-linecap="round"/><path d="M 30.7811 127.3114 L 42.8287 167.4701 " data-paper-data="{&quot;origPos&quot;:null}" fill="none" stroke="#000000" stroke-width="4" stroke-linecap="round"/><path d="M 5.8827 38.5606 C 5.8827 24.5878 17.2099 13.2606 31.1827 13.2606 C 45.1555 13.2606 56.4827 24.5878 56.4827 38.5606 C 56.4827 52.5334 45.1555 63.8606 31.1827 63.8606 C 17.2099 63.8606 5.8827 52.5334 5.8827 38.5606 Z " data-paper-data="{&quot;origPos&quot;:null}" fill="#d4d4d4" stroke="#000000" stroke-width="2.5" stroke-linecap="butt"/><path d="M238.14474,111.74199c0,-2.66149 2.15756,-4.81905 4.81905,-4.81905c2.66149,0 4.81905,2.15756 4.81905,4.81905c0,2.66149 -2.15756,4.81905 -4.81905,4.81905c-2.66149,0 -4.81905,-2.15756 -4.81905,-4.81905z" data-paper-data="{&quot;origPos&quot;:null}" fill="#000000" stroke="none" stroke-width="0" stroke-linecap="butt" transform="matrix(1,0,0,1,-211.37949,-76.45518)"/><path d="M251.7987,111.74199c0,-2.66148 2.15757,-4.81905 4.81905,-4.81905c2.66148,0 4.81905,2.15757 4.81905,4.81905c0,2.66148 -2.15757,4.81905 -4.81905,4.81905c-2.66148,0 -4.81905,-2.15757 -4.81905,-4.81905z" data-paper-data="{&quot;origPos&quot;:null}" fill="#000000" stroke="none" stroke-width="0" stroke-linecap="butt" transform="matrix(1,0,0,1,-211.37949,-76.45518)"/><path d="M 36.1113 32.1813 L 26.9843 28.5305 " data-paper-data="{&quot;origPos&quot;:null}" fill="none" stroke="#000000" stroke-width="2.5" stroke-linecap="round"/><path d="M 48.1589 28.3154 L 41.2224 31.6011 " data-paper-data="{&quot;origPos&quot;:null}" fill="none" stroke="#000000" stroke-width="2.5" stroke-linecap="round"/><path d="M 48.5016 79.9741 C 47.9459 79.9279 40.1765 79.0921 32.4033 76.5264 C 26.7854 74.672 29.0081 70.7749 29.0081 70.7749 " data-paper-data="{&quot;origPos&quot;:null}" fill="none" stroke="#000000" stroke-width="4" stroke-linecap="round"/><path d="M 30.1985 69.1082 L 53.897 72.6797 " data-paper-data="{&quot;origPos&quot;:null,&quot;index&quot;:null}" fill="none" stroke="#000000" stroke-width="4" stroke-linecap="round"/><g data-paper-data="{&quot;origPos&quot;:null}"><path d="M269.20372,148.8059v-3.6875h2.25v3.6875z" data-paper-data="{&quot;origPos&quot;:null}" fill="#b6b6b6" stroke="none" stroke-width="0" stroke-linecap="butt" transform="matrix(1,0,0,1,-211.37949,-76.45518)"/><path d="M268.16671,143.63095l-0.03733,-1.35777l3.12066,-1.73747h24.80555v3.09524z" data-paper-data="{&quot;origPos&quot;:null}" fill="#b6b6b6" stroke="none" stroke-width="0" stroke-linecap="butt" transform="matrix(1,0,0,1,-211.37949,-76.45518)"/><path d="M271.01705,146.53175v-5.41666h9.78334v5.41666z" data-paper-data="{&quot;origPos&quot;:null}" fill="#b6b6b6" stroke="none" stroke-width="0" stroke-linecap="butt" transform="matrix(1,0,0,1,-211.37949,-76.45518)"/><path d="M 63.4264 68.9877 C 63.4264 68.9877 62.5998 70.6734 61.9107 71.1656 C 61.2339 71.649 59.9264 71.4877 59.9264 71.4877 " data-paper-data="{&quot;origPos&quot;:null}" fill="none" stroke="#b6b6b6" stroke-width="1" stroke-linecap="round"/><path d="M 60.1249 65.544 C 60.1249 65.544 58.8957 65.9217 58.1628 65.5723 C 57.4166 65.2165 56.3349 63.7369 56.3349 63.7369 " data-paper-data="{&quot;origPos&quot;:null,&quot;origRot&quot;:0,&quot;index&quot;:null}" fill="none" stroke="#b6b6b6" stroke-width="1" stroke-linecap="round"/><path d="M273.23927,145.49841c0,0 -0.28572,-1.29207 -0.28572,-2.11905c0,-0.86416 0.28572,-2.21428 0.28572,-2.21428h6.16666c0,0 0.23809,1.35013 0.23809,2.21428c0,0.82699 -0.23809,2.11905 -0.23809,2.11905z" data-paper-data="{&quot;origPos&quot;:null}" fill="#7c7c7c" stroke="none" stroke-width="0" stroke-linecap="butt" transform="matrix(1,0,0,1,-211.37949,-76.45518)"/><path d="M264.52583,151.55035c0,0 -0.32021,-2.9195 0.31491,-4.90814c0.5873,-1.83892 2.81739,-4.89949 2.81739,-4.89949l0.73592,0.03734l3.94688,2.08069c0,0 -2.19225,2.19806 -2.75533,3.88495c-0.44136,1.32224 0.18156,3.82559 0.18156,3.82559z" data-paper-data="{&quot;origPos&quot;:null,&quot;origRot&quot;:0}" fill="#a04900" stroke="none" stroke-width="0" stroke-linecap="butt" transform="matrix(1,0,0,1,-211.37949,-76.45518)"/><path d="M289.41851,141.22716l2.80662,-2.14044l1.2648,-0.00242v2.14286z" data-paper-data="{&quot;origPos&quot;:null}" fill="#b6b6b6" stroke="none" stroke-width="0" stroke-linecap="butt" transform="matrix(1,0,0,1,-211.37949,-76.45518)"/></g><g data-paper-data="{&quot;origPos&quot;:null}"><path d="M260.95372,159.05591v-3.6875h2.25v3.6875z" data-paper-data="{&quot;origPos&quot;:null}" fill="#b6b6b6" stroke="none" stroke-width="0" stroke-linecap="butt" transform="matrix(1,0,0,1,-211.37949,-76.45518)"/><path d="M259.91671,153.88095l-0.03733,-1.35777l3.12066,-1.73747h24.80555v3.09524z" data-paper-data="{&quot;origPos&quot;:null}" fill="#b6b6b6" stroke="none" stroke-width="0" stroke-linecap="butt" transform="matrix(1,0,0,1,-211.37949,-76.45518)"/><path d="M262.76705,156.78175v-5.41666h9.78334v5.41666z" data-paper-data="{&quot;origPos&quot;:null}" fill="#b6b6b6" stroke="none" stroke-width="0" stroke-linecap="butt" transform="matrix(1,0,0,1,-211.37949,-76.45518)"/><path d="M 55.1764 79.2377 C 55.1764 79.2377 54.3498 80.9234 53.6607 81.4156 C 52.9839 81.899 51.6764 81.7377 51.6764 81.7377 " data-paper-data="{&quot;origPos&quot;:null}" fill="none" stroke="#b6b6b6" stroke-width="1" stroke-linecap="round"/><path d="M 51.8749 75.794 C 51.8749 75.794 50.6457 76.1717 49.9128 75.8223 C 49.1666 75.4665 48.0849 73.9869 48.0849 73.9869 " data-paper-data="{&quot;origPos&quot;:null,&quot;origRot&quot;:0,&quot;index&quot;:null}" fill="none" stroke="#b6b6b6" stroke-width="1" stroke-linecap="round"/><path d="M264.98927,155.74842c0,0 -0.28571,-1.29206 -0.28571,-2.11905c0,-0.86416 0.28571,-2.21429 0.28571,-2.21429h6.16667c0,0 0.23809,1.35013 0.23809,2.21429c0,0.82699 -0.23809,2.11905 -0.23809,2.11905z" data-paper-data="{&quot;origPos&quot;:null}" fill="#7c7c7c" stroke="none" stroke-width="0" stroke-linecap="butt" transform="matrix(1,0,0,1,-211.37949,-76.45518)"/><path d="M256.27583,161.80035c0,0 -0.3202,-2.91951 0.31491,-4.90815c0.5873,-1.83891 2.81739,-4.89949 2.81739,-4.89949l0.73593,0.03734l3.94688,2.08069c0,0 -2.19225,2.19806 -2.75533,3.88495c-0.44137,1.32225 0.18156,3.82559 0.18156,3.82559z" data-paper-data="{&quot;origPos&quot;:null,&quot;origRot&quot;:0}" fill="#a04900" stroke="none" stroke-width="0" stroke-linecap="butt" transform="matrix(1,0,0,1,-211.37949,-76.45518)"/><path d="M281.16851,151.47716l2.80662,-2.14044l1.2648,-0.00242v2.14286z" data-paper-data="{&quot;origPos&quot;:null}" fill="#b6b6b6" stroke="none" stroke-width="0" stroke-linecap="butt" transform="matrix(1,0,0,1,-211.37949,-76.45518)"/></g><g data-paper-data="{&quot;origPos&quot;:null}" stroke-linecap="butt"><g><path d="M275.37949,94.55518c0,4.2802 -14.32689,7.75 -32,7.75c-17.67311,0 -32,-3.4698 -32,-7.75c0,-4.2802 14.32689,-7.75 32,-7.75c17.67311,0 32,3.4698 32,7.75z" data-paper-data="{&quot;origPos&quot;:null}" fill="#b65d00" stroke-width="NaN" stroke="none" transform="matrix(1,0,0,1,-211.37949,-76.45518)"/><path d="M228.24076,93.83866l2.02352,-15.78348c0,0 7.68422,1.21412 12.34349,1.21412c5.13309,0 12.7482,-1.21412 12.7482,-1.21412l2.02352,15.78348c0,0 -4.59804,1.51751 -14.97407,1.41647c-10.91145,-0.10626 -14.16466,-1.41647 -14.16466,-1.41647z" data-paper-data="{&quot;origPos&quot;:null}" fill="#994f00" stroke-width="0" stroke="none" transform="matrix(1,0,0,1,-211.37949,-76.45518)"/><path d="M255.17949,77.95518c0,0.82842 -5.55167,1.5 -12.4,1.5c-6.84833,0 -12.4,-0.67158 -12.4,-1.5c0,-0.82842 5.55167,-1.5 12.4,-1.5c6.84833,0 12.4,0.67158 12.4,1.5z" data-paper-data="{&quot;origPos&quot;:null}" fill="#994f00" stroke-width="0" stroke="none" transform="matrix(1,0,0,1,-211.37949,-76.45518)"/></g><path d="M228.26556,93.65169l0.5,-4.16667c0,0 8.10854,1.33333 13.24508,1.33333c5.7583,0 14.67158,-1.33333 14.67158,-1.33333l0.58333,4.16667c0,0 -4.41803,1.89714 -15.17158,1.75c-9.14656,-0.12515 -13.82842,-1.75 -13.82842,-1.75z" data-paper-data="{&quot;origPos&quot;:null}" fill="#7c4000" stroke-width="0" stroke="none" transform="matrix(1,0,0,1,-211.37949,-76.45518)"/></g><path d="M236.31712,197.8769c0,0 -0.59138,-15.88257 -0.70878,-24.29573c-0.09052,-6.48729 1.09893,-20.2556 2.07596,-26.68647c0.43791,-2.88235 1.63282,-2.0178 1.63282,-2.0178c0,0 -0.04324,3.32468 0.271,5.053c0.34881,1.91847 4.354,4.072 4.354,4.072l-1.69167,46.50833c0,0 -2.70276,-0.51651 -3.89412,-1.01814c-1.18359,-0.49836 -2.03922,-1.6152 -2.03922,-1.6152z" fill="#c67116" stroke="none" stroke-width="0" stroke-linecap="butt" transform="matrix(1,0,0,1,-211.37949,-76.45518)"/><path d="M244.28379,164.51856c0,0 -0.39977,-4.09171 -0.48404,-5.8177c-0.06757,-1.38399 0.01737,-3.74064 0.01737,-3.74064l1.675,0.73333c0,0 -0.00893,2.01282 -0.17677,3.23858c-0.22043,1.60989 -1.03157,5.58642 -1.03157,5.58642z" fill="#9c5911" stroke="none" stroke-width="0" stroke-linecap="butt" transform="matrix(1,0,0,1,-211.37949,-76.45518)"/><path d="M239.30925,145.09041l0.09294,-1.63176l-3.19294,2.23176l3.19363,7.7095l4.30637,1.08624c0,0 0.01453,-0.513 0.01453,-0.513c0,0 -3.40291,-2.3834 -3.70934,-2.98322c-0.83121,-1.62704 -0.70519,-5.89952 -0.70519,-5.89952z" fill="#db7d18" stroke="none" stroke-width="0" stroke-linecap="butt" transform="matrix(1,0,0,1,-211.37949,-76.45518)"/></g></g></svg>