<svg xmlns="http://www.w3.org/2000/svg" xmlns:xlink="http://www.w3.org/1999/xlink" version="1.1" width="28.31849" height="24.19883" viewBox="0,0,28.31849,24.19883"><g><g data-paper-data="{&quot;isPaintingLayer&quot;:true}" fill-rule="nonzero" stroke-linejoin="miter" stroke-miterlimit="10" stroke-dasharray="" stroke-dashoffset="0" style="mix-blend-mode: normal"><path d="M 20.2809 1.75 C 20.2809 1.75 25.4233 4.8711 25.6165 11.5727 C 25.8152 18.4625 20.6688 22.4488 20.6688 22.4488 " stroke-width="3.5" stroke-linecap="round" fill="none" stroke="#3e3e3e"/><path d="M 26.5685 12.0367 L 6.9125 12.0394 " stroke-width="3.5" stroke-linecap="round" fill="none" stroke="#3e3e3e"/><path d="M 9.0096 14.922 L 9.0088 9.2873 " stroke-width="3.5" stroke-linecap="round" fill="none" stroke="#3e3e3e"/><path d="M 19.9214 1.7501 C 19.9214 1.7501 25.0638 4.8711 25.257 11.5728 C 25.4557 18.4625 20.3093 22.4488 20.3093 22.4488 " stroke-width="3.5" stroke-linecap="round" fill="none" stroke="#3e3e3e"/><path d="M 26.4161 12.0367 L 6.7602 12.0394 " stroke-width="3.5" stroke-linecap="round" fill="none" stroke="#3e3e3e"/><path d="M 8.8572 14.922 L 8.8564 9.2873 " stroke-width="3.5" stroke-linecap="round" fill="none" stroke="#3e3e3e"/><path d="M 3.8173 9.7035 C 5.0972 9.7033 6.135 10.7578 6.1352 12.0588 C 6.1354 13.3597 5.0979 14.4145 3.8179 14.4147 C 2.538 14.4148 1.5002 13.3603 1.5 12.0594 C 1.4998 10.7584 2.5373 9.7037 3.8173 9.7035 Z " stroke-width="3" stroke-linecap="butt" fill="none" stroke="#3e3e3e"/></g></g></svg>