<svg xmlns="http://www.w3.org/2000/svg" xmlns:xlink="http://www.w3.org/1999/xlink" version="1.1" width="25.75" height="42.70951" viewBox="0,0,25.75,42.70951"><g><g data-paper-data="{&quot;isPaintingLayer&quot;:true}" fill-rule="nonzero" stroke-linecap="none" stroke-linejoin="miter" stroke-miterlimit="10" stroke-dasharray="" stroke-dashoffset="0" font-family="none" font-weight="none" font-size="none" text-anchor="none" style="mix-blend-mode: normal"><g data-paper-data="{&quot;origPos&quot;:null}"><path d="M 1.25 40.3987 L 1.25 9.0618 C 1.25 9.0618 5.3119 3.892 9 2.3226 C 12.6881 0.7532 14.1342 1.0388 17.087 2.3226 C 20.0398 3.6065 24.5 9.0618 24.5 9.0618 L 24.5 40.3987 L 18.6528 37.2538 L 12.8122 40.3987 L 6.747 36.8045 Z " data-paper-data="{&quot;origPos&quot;:null}" fill="#c0fffc" stroke="#00d7e5" stroke-width="2.5" stroke-linecap="butt"/><path d="M232.97187,172.71159c0,-1.61283 1.30746,-2.92029 2.92029,-2.92029c1.61283,0 2.92029,1.30746 2.92029,2.92029c0,1.61283 -1.30746,2.92029 -2.92029,2.92029c-1.61283,0 -2.92029,-1.30746 -2.92029,-2.92029z" data-paper-data="{&quot;origPos&quot;:null}" fill="#00becc" stroke="none" stroke-width="0" stroke-linecap="butt" transform="matrix(1,0,0,1,-227.34807,-159.27056)"/><path d="M241.73274,172.7116c0,-1.61283 1.30747,-2.92029 2.92029,-2.92029c1.61283,0 2.92029,1.30747 2.92029,2.92029c0,1.61283 -1.30746,2.92029 -2.92029,2.92029c-1.61283,0 -2.92029,-1.30746 -2.92029,-2.92029z" data-paper-data="{&quot;origPos&quot;:null}" fill="#00becc" stroke="none" stroke-width="0" stroke-linecap="butt" transform="matrix(1,0,0,1,-227.34807,-159.27056)"/><path d="M 16.2325 19.5063 C 16.2325 19.5063 13.9793 20.8541 12.6987 20.8541 C 11.3196 20.8541 9.4173 19.5063 9.4173 19.5063 " data-paper-data="{&quot;origPos&quot;:null}" fill="none" stroke="#00becc" stroke-width="2" stroke-linecap="round"/></g></g></g></svg>